<svg width="375" height="667" viewBox="0 0 375 667" fill="none" xmlns="http://www.w3.org/2000/svg">
<rect width="375" height="667" fill="#1E1E1E"/>
<g clip-path="url(#clip0_0_1)">
<rect width="375" height="667" fill="black"/>
<path d="M38 3.50001C33.3333 6.50001 23.7 16.1 22.5 30.5C21.3 44.9 18.6667 157.833 17.5 212.5L22.5 426.5L32 607C34.1667 619.833 45.6 648.6 74 661L91 667H281C297 664.667 331.6 650.7 342 613.5C343.333 607.667 346.2 589.2 347 562L351.5 490.5L355.5 329.5V126C355 108.5 353.9 70.5 353.5 58.5C353.1 46.5 352 31.5 351.5 25.5C350.333 18.8333 344.8 4.40001 332 1.33514e-05C316 -5.49999 41 -9.99999 38 3.50001Z" fill="#222831" stroke="black"/>
<path d="M36 11.5C32.1667 14.5 24.9 32 26.5 78C26.5 124.8 25.1667 201.5 24.5 234C25 242.667 26.3 262.3 27.5 271.5C28.7 280.7 36 338 39.5 365.5C40.6667 375 42.9 400.8 42.5 428C42.1 455.2 44.3333 561.333 45.5 611C46.3333 625.667 57.8 656.6 97 663C123.5 668.333 197.2 675.8 280 663C292.167 661 319.2 649.2 330 618L332 519L335.5 385.5C337.167 360.833 341.8 307.5 347 291.5C348.667 262.333 352 199.8 352 183L347 24.5C346.5 19.6667 342.3 8.1 329.5 0.5H50.5C47.0762 1.66667 39.3829 5.5 36 11.5Z" fill="#393E46" stroke="black"/>
</g>
<defs>
<clipPath id="clip0_0_1">
<rect width="375" height="667" fill="black"/>
</clipPath>
</defs>
</svg>
